<?xml version="1.0" standalone="no"?>
<!DOCTYPE svg PUBLIC "-//W3C//DTD SVG 20010904//EN"
 "http://www.w3.org/TR/2001/REC-SVG-20010904/DTD/svg10.dtd">
<svg version="1.0" xmlns="http://www.w3.org/2000/svg"
 width="20.000000pt" height="20.000000pt" viewBox="0 0 20.000000 20.000000"
 preserveAspectRatio="xMidYMid meet">

<g transform="translate(0.000000,20.000000) scale(0.100000,-0.100000)"
fill="#757575" stroke="none">
<path d="M40 183 l-35 -16 39 -17 c35 -16 42 -16 75 -3 48 20 48 20 6 37 -44
19 -40 19 -85 -1z"/>
<path d="M0 106 c0 -40 3 -45 32 -55 17 -6 32 -10 34 -9 1 2 4 17 7 35 5 34 0
42 -45 61 l-28 12 0 -44z"/>
<path d="M110 125 c-25 -14 -25 -14 10 -8 40 6 65 23 35 23 -11 -1 -31 -7 -45
-15z"/>
<path d="M110 90 c-24 -24 -25 -38 -4 -68 18 -27 55 -29 77 -4 23 26 21 58 -5
76 -30 21 -44 20 -68 -4z m54 -42 c8 -5 7 -11 -2 -20 -10 -10 -16 -9 -29 5
-11 11 -13 17 -5 17 7 0 13 10 13 23 1 20 2 20 6 2 3 -11 10 -23 17 -27z"/>
</g>
</svg>
