<?xml version="1.0" standalone="no"?>
<!DOCTYPE svg PUBLIC "-//W3C//DTD SVG 20010904//EN"
 "http://www.w3.org/TR/2001/REC-SVG-20010904/DTD/svg10.dtd">
<svg version="1.0" xmlns="http://www.w3.org/2000/svg"
 width="24.000000pt" height="24.000000pt" viewBox="0 0 24.000000 24.000000"
 preserveAspectRatio="xMidYMid meet">

<g transform="translate(0.000000,24.000000) scale(0.100000,-0.100000)"
fill="#757575" stroke="none">
<path d="M52 222 c-23 -9 -42 -19 -42 -22 0 -3 20 -13 45 -22 42 -16 48 -16
90 0 25 9 45 19 45 22 0 5 -48 25 -85 36 -5 1 -29 -5 -53 -14z"/>
<path d="M0 126 c0 -53 0 -53 39 -64 53 -17 52 -17 49 35 -3 44 -5 47 -45 64
l-43 18 0 -53z"/>
<path d="M151 159 c-24 -11 -41 -22 -38 -25 3 -3 14 -1 25 5 12 6 30 11 41 11
12 0 21 7 21 15 0 8 -1 15 -2 14 -2 0 -23 -9 -47 -20z"/>
<path d="M130 110 c-40 -40 -11 -110 45 -110 56 0 85 70 45 110 -11 11 -31 20
-45 20 -14 0 -34 -9 -45 -20z m56 -25 c-2 -7 0 -17 6 -23 8 -8 7 -16 -2 -27
-12 -14 -15 -14 -28 -1 -12 12 -13 18 -4 29 7 8 9 17 6 20 -3 3 -3 11 1 16 9
15 28 2 21 -14z"/>
</g>
</svg>
