<?xml version="1.0" standalone="no"?>
<!DOCTYPE svg PUBLIC "-//W3C//DTD SVG 20010904//EN"
 "http://www.w3.org/TR/2001/REC-SVG-20010904/DTD/svg10.dtd">
<svg version="1.0" xmlns="http://www.w3.org/2000/svg"
 width="20.000000pt" height="20.000000pt" viewBox="0 0 20.000000 20.000000"
 preserveAspectRatio="xMidYMid meet">
<metadata>
Created by potrace 1.16, written by Peter Selinger 2001-2019
</metadata>
<g transform="translate(0.000000,20.000000) scale(0.003906,-0.003906)"
fill="#000000" stroke="none">
<path d="M1067 4741 c-695 -256 -1026 -383 -1043 -400 l-24 -23 0 -1328 0
-1329 22 -26 c18 -20 204 -92 905 -350 562 -207 895 -325 918 -325 54 0 105
53 105 108 0 83 35 68 -889 408 l-841 309 0 1158 c0 636 3 1157 8 1157 4 0
407 -148 897 -328 l890 -328 5 -523 5 -523 33 -29 c46 -41 111 -41 153 0 l29
29 0 520 0 520 68 26 c215 82 1727 636 1734 636 4 0 8 -185 8 -410 0 -438 2
-454 49 -480 25 -13 97 -13 122 0 48 26 49 34 49 584 l0 516 -27 29 c-24 25
-192 90 -1050 405 -793 292 -1032 376 -1065 375 -30 -1 -355 -117 -1061 -378z
m1907 -157 c457 -169 836 -309 843 -313 7 -3 -369 -147 -836 -319 l-847 -312
-847 312 c-466 171 -845 314 -842 316 7 7 1669 620 1684 621 7 1 387 -137 845
-305z"/>
<path d="M3572 2770 c-611 -77 -1093 -530 -1209 -1135 -26 -135 -23 -388 5
-522 62 -291 191 -524 405 -730 200 -194 459 -324 729 -368 121 -19 350 -19
464 0 582 100 1039 557 1139 1139 19 114 19 343 0 464 -44 270 -174 529 -368
729 -207 214 -444 345 -729 403 -117 24 -327 33 -436 20z m339 -230 c418 -60
790 -375 928 -786 142 -422 34 -872 -284 -1189 -356 -357 -877 -445 -1331
-225 -334 162 -570 474 -639 845 -23 121 -16 366 13 475 84 315 267 563 538
727 230 140 496 192 775 153z"/>
<path d="M3678 2125 c-53 -30 -53 -22 -58 -577 l-5 -516 -233 229 c-192 188
-239 229 -269 235 -78 15 -143 -53 -129 -132 7 -35 47 -79 350 -381 l342 -343
54 0 55 0 347 348 348 347 0 47 c0 79 -69 135 -142 113 -12 -4 -130 -113 -260
-243 l-238 -236 0 530 0 530 -29 28 c-35 34 -94 43 -133 21z"/>
</g>
</svg>
