<?xml version="1.0" standalone="no"?>
<!DOCTYPE svg PUBLIC "-//W3C//DTD SVG 20010904//EN"
 "http://www.w3.org/TR/2001/REC-SVG-20010904/DTD/svg10.dtd">
<svg version="1.0" xmlns="http://www.w3.org/2000/svg"
 width="225.000000pt" height="225.000000pt" viewBox="0 0 225.000000 225.000000"
 preserveAspectRatio="xMidYMid meet">

<g transform="translate(0.000000,225.000000) scale(0.100000,-0.100000)"
fill="#000000" stroke="none">
<path d="M1158 1871 c-233 -177 -439 -346 -436 -358 4 -19 477 -305 498 -301
12 3 15 21 14 105 l-1 101 101 7 c170 11 264 -21 354 -119 66 -73 94 -146 94
-246 0 -84 -18 -142 -68 -213 -44 -62 -86 -91 -214 -147 -154 -68 -168 -81
-102 -99 51 -15 88 -14 157 4 267 70 449 330 416 595 -25 194 -114 326 -282
415 -100 53 -162 65 -326 65 l-143 0 0 39 c0 77 -13 160 -26 165 -7 3 -23 -3
-36 -13z"/>
<path d="M501 1244 l-203 -117 70 -39 71 -39 206 119 c199 115 205 120 183
134 -32 21 -106 58 -115 58 -4 0 -100 -52 -212 -116z"/>
<path d="M755 1115 c-110 -63 -201 -119 -203 -123 -2 -6 123 -85 158 -100 9
-4 410 228 410 236 0 7 -11 13 -115 73 l-51 28 -199 -114z"/>
<path d="M270 842 l0 -239 203 -117 c111 -64 206 -116 210 -116 4 0 7 106 7
235 l0 234 -69 41 c-108 63 -101 65 -101 -35 l0 -88 -22 29 c-12 16 -24 33
-28 37 -4 4 -19 3 -33 -2 l-27 -11 0 94 c0 104 4 96 -82 145 l-58 32 0 -239z"/>
<path d="M950 961 l-205 -118 -3 -237 c-1 -130 1 -236 5 -236 4 0 99 52 210
116 l203 117 0 238 c0 132 -1 239 -2 239 -2 0 -95 -54 -208 -119z m80 -110 c0
-14 -29 -37 -101 -80 -89 -54 -100 -59 -97 -39 2 15 31 39 98 80 52 32 95 58
97 58 2 0 3 -9 3 -19z m-23 -105 c-5 -12 -106 -76 -121 -76 -3 0 -6 7 -6 15 0
9 28 33 63 55 58 37 76 39 64 6z m-7 -74 c0 -11 -16 -27 -40 -41 -39 -22 -40
-22 -40 -3 0 12 14 29 33 41 40 25 47 26 47 3z"/>
</g>
</svg>
