<?xml version="1.0" standalone="no"?>
<!DOCTYPE svg PUBLIC "-//W3C//DTD SVG 20010904//EN"
 "http://www.w3.org/TR/2001/REC-SVG-20010904/DTD/svg10.dtd">
<svg version="1.0" xmlns="http://www.w3.org/2000/svg"
 width="20.000000pt" height="20.000000pt" viewBox="0 0 20.000000 20.000000"
 preserveAspectRatio="xMidYMid meet">
<metadata>
Created by potrace 1.16, written by Peter Selinger 2001-2019
</metadata>
<g transform="translate(0.000000,20.000000) scale(0.008889,-0.008889)"
fill="#757575" stroke="none">
<path d="M945 1705 c-121 -95 -221 -180 -223 -188 -4 -18 461 -302 493 -302
19 0 20 6 18 102 l-2 101 93 7 c118 9 179 1 254 -35 207 -98 271 -360 134
-546 -44 -61 -86 -89 -213 -145 -125 -54 -153 -74 -129 -89 8 -5 35 -11 60
-15 148 -20 356 95 456 252 170 264 80 623 -191 765 -105 54 -171 68 -333 68
l-140 0 -7 100 c-7 94 -9 100 -29 100 -12 -1 -116 -76 -241 -175z"/>
<path d="M508 1247 c-109 -62 -198 -115 -198 -119 0 -3 29 -22 64 -42 l64 -36
206 119 c199 114 205 119 184 133 -33 22 -106 58 -115 58 -4 -1 -97 -51 -205
-113z"/>
<path d="M752 1112 c-111 -64 -202 -119 -202 -122 0 -4 38 -27 83 -53 l84 -47
199 115 c109 63 200 119 201 123 2 4 -9 14 -25 22 -15 9 -52 30 -82 47 l-55
32 -203 -117z"/>
<path d="M270 843 l0 -239 203 -117 c112 -64 207 -117 210 -117 4 0 7 105 7
234 l0 234 -78 46 c-43 25 -82 46 -85 46 -4 0 -7 -39 -8 -87 0 -79 -2 -86 -14
-68 -40 58 -39 57 -68 46 l-27 -11 0 95 0 94 -62 37 c-35 20 -66 39 -70 41 -5
2 -8 -103 -8 -234z"/>
<path d="M940 955 l-195 -114 -3 -235 c-1 -130 1 -236 4 -236 4 0 99 53 211
117 l203 117 0 233 c0 180 -3 233 -12 232 -7 0 -101 -51 -208 -114z"/>
</g>
</svg>
